<svg width="198" height="52" viewBox="0 0 198 52" fill="none" xmlns="http://www.w3.org/2000/svg">
<path d="M17.904 51.456C12.24 51.456 7.824 49.728 4.656 46.272C1.584 43.008 0.0480005 38.496 0.0480005 32.736C0.0480005 25.824 2.112 19.752 6.24 14.52C2.88 12.024 1.2 9.312 1.2 6.384C1.2 2.592 3.576 0.696 8.328 0.696C11.16 0.696 13.896 1.512 16.536 3.144C16.728 3.192 16.824 3.384 16.824 3.72C16.824 3.816 16.776 3.864 16.68 3.864C16.632 3.864 16.488 3.792 16.248 3.648C13.8 2.352 11.496 1.704 9.336 1.704C4.824 1.704 2.568 3.48 2.568 7.032C2.568 9.432 3.984 11.712 6.816 13.872C11.808 8.016 19.176 5.088 28.92 5.088C32.184 5.088 35.016 5.544 37.416 6.456C40.68 7.656 42.576 9.576 43.104 12.216C43.152 12.312 43.176 12.504 43.176 12.792C43.176 14.616 42.024 16.248 39.72 17.688C41.208 20.232 41.952 23.352 41.952 27.048C41.952 31.272 40.968 35.088 39 38.496C36.696 42.384 33.744 45.48 30.144 47.784C26.256 50.232 22.176 51.456 17.904 51.456ZM25.032 19.632C30.024 19.632 34.2 18.792 37.56 17.112C36.36 14.664 34.656 13.44 32.448 13.44C32.352 13.44 32.232 13.464 32.088 13.512C31.944 13.512 31.776 13.536 31.584 13.584C31.392 13.632 31.224 13.656 31.08 13.656C30.936 13.656 30.816 13.656 30.72 13.656C30.192 13.656 29.928 13.512 29.928 13.224C29.928 12.792 30.528 12.576 31.728 12.576C34.608 12.576 36.984 13.824 38.856 16.32C40.584 15.168 41.448 13.896 41.448 12.504C41.448 8.136 37.512 5.952 29.64 5.952C21.768 5.952 15.336 9.336 10.344 16.104C12.6 17.256 14.952 18.144 17.4 18.768C19.848 19.344 22.392 19.632 25.032 19.632ZM19.128 50.376C22.632 50.376 26.184 48.84 29.784 45.768C32.808 43.176 35.256 40.032 37.128 36.336C38.568 33.456 39.288 29.928 39.288 25.752C39.288 22.968 38.928 20.568 38.208 18.552C36.72 19.176 35.016 19.68 33.096 20.064C31.224 20.4 29.16 20.568 26.904 20.568C20.52 20.568 14.832 19.296 9.84 16.752C6.336 21.696 4.584 27.312 4.584 33.6C4.584 38.112 5.64 41.832 7.752 44.76C10.008 47.88 13.344 49.728 17.76 50.304C17.952 50.304 18.168 50.304 18.408 50.304C18.648 50.352 18.888 50.376 19.128 50.376ZM48.981 48.216C45.573 48.216 43.869 46.536 43.869 43.176C43.869 40.536 44.853 37.2 46.821 33.168C46.917 32.976 47.373 32.136 48.189 30.648C49.053 29.112 50.277 26.928 51.861 24.096H48.117L47.973 23.952L48.045 23.52L48.117 23.448H52.221L57.405 14.376C57.837 14.568 58.341 14.664 58.917 14.664C59.589 14.664 60.309 14.424 61.077 13.944C61.893 13.512 62.445 13.032 62.733 12.504L62.949 12.576L56.469 23.448H61.437L61.509 23.52V23.952L61.365 24.096H56.109L51.213 32.736C48.285 37.872 46.821 41.832 46.821 44.616C46.821 46.584 47.589 47.568 49.125 47.568C51.525 47.568 53.949 46.224 56.397 43.536C57.069 42.816 57.861 41.736 58.773 40.296C59.685 38.856 60.453 37.488 61.077 36.192C61.173 35.952 61.293 35.88 61.437 35.976C61.629 36.024 61.677 36.168 61.581 36.408C60.861 37.848 60.093 39.216 59.277 40.512C58.509 41.808 57.621 43.008 56.613 44.112C54.117 46.848 51.573 48.216 48.981 48.216ZM66.9045 48.648C64.7925 48.648 63.1845 47.736 62.0805 45.912C61.0725 44.376 60.5685 42.504 60.5685 40.296C60.5685 36.504 61.7685 32.976 64.1685 29.712C66.8085 26.16 69.9765 24.384 73.6725 24.384C75.5445 24.384 76.9845 25.032 77.9925 26.328C78.9525 27.576 79.4325 29.16 79.4325 31.08C79.4325 31.944 79.3365 32.832 79.1445 33.744C79.0005 34.656 78.7605 35.616 78.4245 36.624C77.7045 38.736 76.8165 40.392 75.7605 41.592L75.9045 41.808C76.3845 42.144 76.9605 42.312 77.6325 42.312C79.0245 42.312 80.2005 41.856 81.1605 40.944C82.1205 40.032 83.2005 38.4 84.4005 36.048C84.4485 35.856 84.5445 35.76 84.6885 35.76C84.7845 35.76 84.8565 35.832 84.9045 35.976C84.9525 36.072 84.9285 36.216 84.8325 36.408C83.8245 38.52 82.7445 40.128 81.5925 41.232C80.4885 42.336 79.1925 42.888 77.7045 42.888C76.7445 42.888 76.0005 42.624 75.4725 42.096C74.9925 42.96 74.4645 43.776 73.8885 44.544C73.3125 45.264 72.6645 45.912 71.9445 46.488C70.3125 47.928 68.6325 48.648 66.9045 48.648ZM67.4085 48.072C69.9525 48.072 72.4485 46.128 74.8965 42.24C74.8965 42.096 74.9685 41.952 75.1125 41.808C74.2485 40.368 73.8165 39 73.8165 37.704C73.8165 37.656 73.8165 37.56 73.8165 37.416C73.8165 37.224 73.8405 36.984 73.8885 36.696C73.9365 36.168 74.0325 35.64 74.1765 35.112C74.3205 34.536 74.5605 34.008 74.8965 33.528C75.6165 32.376 76.4805 31.8 77.4885 31.8H78.1365C78.3285 31.848 78.4725 31.872 78.5685 31.872C78.6645 31.872 78.7365 31.872 78.7845 31.872C78.7845 27.552 77.4165 25.392 74.6805 25.392C72.3765 25.392 70.1925 26.784 68.1285 29.568C66.4485 31.776 65.2485 34.248 64.5285 36.984C64.0965 38.472 63.8805 40.032 63.8805 41.664C63.8805 45.936 65.0565 48.072 67.4085 48.072ZM78.9459 48.576C78.8979 48.576 78.8739 48.528 78.8739 48.432C78.8739 48.336 78.8979 48.264 78.9459 48.216C91.4739 17.976 102.274 2.856 111.346 2.856C113.554 2.856 114.658 3.792 114.658 5.664C114.658 7.632 113.77 9.816 111.994 12.216C108.634 16.92 103.93 20.664 97.8819 23.448C96.2019 24.216 94.8579 24.72 93.8499 24.96C93.7539 25.008 93.5859 25.032 93.3459 25.032C91.7619 27.768 90.2499 30.48 88.8099 33.168C87.3699 35.808 86.0259 38.448 84.7779 41.088C91.6419 29.472 97.4979 23.664 102.346 23.664C104.122 23.664 105.01 24.504 105.01 26.184C105.01 28.92 102.946 31.128 98.8179 32.808C98.3859 33 97.7859 33.216 97.0179 33.456C96.2499 33.696 95.2899 33.96 94.1379 34.248H94.2819C94.8099 34.248 95.2659 34.68 95.6499 35.544C95.7459 35.88 95.8419 36.24 95.9379 36.624C96.0339 36.96 96.0819 37.32 96.0819 37.704C96.0819 38.616 95.8659 39.936 95.4339 41.664C95.2419 42.576 95.0979 43.368 95.0019 44.04C94.9059 44.664 94.8579 45.192 94.8579 45.624C94.8579 46.968 95.4339 47.64 96.5859 47.64C98.4099 47.64 100.426 46.104 102.634 43.032C103.45 42.024 104.17 40.968 104.794 39.864C105.466 38.76 106.162 37.536 106.882 36.192C106.978 36 107.146 35.88 107.386 35.832C107.626 35.784 107.626 35.976 107.386 36.408C106.714 37.752 105.994 39.048 105.226 40.296C104.506 41.544 103.714 42.72 102.85 43.824C100.498 46.848 98.2419 48.36 96.0819 48.36C92.9139 48.36 91.3299 47.112 91.3299 44.616C91.3299 43.608 91.6179 42.144 92.1939 40.224C92.7699 38.256 93.0579 36.84 93.0579 35.976C93.0579 34.824 92.4099 34.248 91.1139 34.248C90.9219 34.248 90.8259 34.176 90.8259 34.032C90.8259 33.84 90.9699 33.744 91.2579 33.744C92.1219 33.696 93.0099 33.552 93.9219 33.312C94.8819 33.024 95.8419 32.616 96.8019 32.088C98.6259 31.176 100.138 30 101.338 28.56C102.442 27.168 102.994 26.016 102.994 25.104C102.994 24.528 102.658 24.24 101.986 24.24C100.402 24.24 98.2179 25.56 95.4339 28.2C94.4259 29.16 93.4659 30.144 92.5539 31.152C91.6899 32.112 90.8499 33.144 90.0339 34.248C88.2579 36.6 86.2419 39.84 83.9859 43.968C83.6979 44.448 83.3619 45.048 82.9779 45.768C82.6419 46.44 82.2339 47.208 81.7539 48.072C81.7539 48.072 81.7299 48.072 81.6819 48.072C81.6819 48.12 81.6579 48.144 81.6099 48.144C81.2739 47.856 80.9619 47.712 80.6739 47.712C80.1939 47.712 79.8099 47.856 79.5219 48.144C79.1859 48.432 78.9939 48.576 78.9459 48.576ZM93.7779 24.384H93.9219C97.0899 23.568 100.546 21.576 104.29 18.408C110.674 13.08 113.866 8.736 113.866 5.376C113.866 4.224 113.266 3.648 112.066 3.648C109.33 3.648 105.874 6.456 101.698 12.072C100.786 13.272 99.6819 14.904 98.3859 16.968C97.0899 18.984 95.5539 21.456 93.7779 24.384ZM125.651 51.312C122.963 51.312 121.619 50.448 121.619 48.72C121.619 47.616 122.459 47.064 124.139 47.064C124.667 47.064 125.291 47.112 126.011 47.208C126.731 47.256 127.547 47.376 128.459 47.568C129.419 47.76 130.259 47.904 130.979 48C131.699 48.096 132.299 48.144 132.779 48.144C143.051 41.376 148.187 31.248 148.187 17.76C148.187 13.968 147.203 10.776 145.235 8.184C143.075 5.304 140.171 3.864 136.523 3.864C132.443 3.864 128.723 5.496 125.363 8.76C122.435 11.688 120.347 15.288 119.099 19.56C118.907 20.184 118.763 20.856 118.667 21.576C118.619 22.248 118.595 22.92 118.595 23.592C118.595 26.088 119.075 28.152 120.035 29.784C121.187 31.848 122.867 32.88 125.075 32.88C127.571 32.88 129.755 31.8 131.627 29.64C133.451 27.528 134.363 25.2 134.363 22.656C134.123 22.272 134.003 21.912 134.003 21.576C134.003 21.24 134.147 21.072 134.435 21.072C134.915 21.072 135.155 21.624 135.155 22.728C135.155 25.656 134.219 28.2 132.347 30.36C130.427 32.568 128.003 33.672 125.075 33.672C122.339 33.672 120.107 32.496 118.379 30.144C116.795 27.984 116.003 25.512 116.003 22.728C116.003 17.448 118.091 12.84 122.267 8.904C126.395 4.92 131.099 2.928 136.379 2.928C136.715 2.928 137.027 2.928 137.315 2.928C137.603 2.928 137.915 2.976 138.251 3.072C142.571 3.696 145.955 5.472 148.403 8.4C150.899 11.328 152.147 14.952 152.147 19.272C152.147 21.192 151.907 23.184 151.427 25.248C150.995 27.312 150.347 29.472 149.483 31.728C147.083 37.824 142.067 43.296 134.435 48.144C134.723 48.096 135.011 48.048 135.299 48C135.587 47.952 135.875 47.904 136.163 47.856C140.915 46.608 145.091 44.448 148.691 41.376C150.131 40.128 151.595 38.592 153.083 36.768C154.619 34.944 156.179 32.808 157.763 30.36C159.347 28.056 161.291 24.96 163.595 21.072C164.987 18.72 166.163 16.752 167.123 15.168C168.131 13.584 168.899 12.408 169.427 11.64C171.875 8.088 174.251 5.28 176.555 3.216C178.811 1.152 181.139 0.119998 183.539 0.119998C184.403 0.119998 185.339 0.335999 186.347 0.767999C187.499 1.248 188.075 1.896 188.075 2.712C188.075 3.576 187.883 4.008 187.499 4.008C187.307 4.008 187.211 3.888 187.211 3.648C187.211 3.504 187.235 3.384 187.283 3.288V3C187.283 2.424 186.851 1.968 185.987 1.632C185.363 1.296 184.715 1.128 184.043 1.128C182.315 1.128 180.491 2.016 178.571 3.792C177.275 4.944 175.811 6.528 174.179 8.544C172.547 10.56 170.747 13.032 168.779 15.96L158.915 30.72C155.219 36.144 151.643 40.248 148.187 43.032C143.675 46.632 138.683 48.576 133.211 48.864C130.523 50.496 128.003 51.312 125.651 51.312ZM126.299 50.592C127.067 50.592 127.883 50.448 128.747 50.16C129.659 49.92 130.571 49.512 131.483 48.936C130.859 48.936 130.235 48.888 129.611 48.792C128.987 48.744 128.339 48.672 127.667 48.576C126.083 48.288 125.195 48.144 125.003 48.144C124.283 48.144 123.923 48.528 123.923 49.296C123.923 50.16 124.715 50.592 126.299 50.592ZM173.205 20.64C171.669 20.64 170.901 19.896 170.901 18.408C170.901 16.776 171.645 15.96 173.133 15.96C174.669 15.96 175.437 16.704 175.437 18.192C175.437 19.824 174.693 20.64 173.205 20.64ZM164.709 48.72C161.541 48.72 159.957 46.968 159.957 43.464C159.957 40.92 160.701 38.232 162.189 35.4L167.589 24.816H167.805C167.949 25.008 168.237 25.104 168.669 25.104C169.581 25.104 170.781 24.552 172.269 23.448L172.413 23.592L166.293 35.472C163.749 40.368 162.477 43.776 162.477 45.696C162.477 46.56 162.717 47.16 163.197 47.496C163.677 47.832 164.229 48 164.853 48C165.525 48 166.173 47.856 166.797 47.568C167.469 47.28 168.045 46.968 168.525 46.632C169.821 45.624 170.901 44.472 171.765 43.176C172.677 41.832 173.469 40.488 174.141 39.144C174.813 37.8 175.413 36.672 175.941 35.76C176.085 35.52 176.229 35.448 176.373 35.544C176.517 35.592 176.541 35.736 176.445 35.976C175.485 37.992 174.429 40.056 173.277 42.168C172.125 44.28 170.661 45.96 168.885 47.208C168.261 47.64 167.589 48 166.869 48.288C166.197 48.576 165.477 48.72 164.709 48.72ZM180.216 48.864C175.368 48.864 172.944 46.56 172.944 41.952C172.944 40.656 173.16 39.264 173.592 37.776V37.848C173.832 36.984 174.288 36.144 174.96 35.328C175.776 34.32 176.52 33.816 177.192 33.816C177.192 33.816 177.264 33.816 177.408 33.816C177.552 33.816 177.792 33.864 178.128 33.96L178.92 32.736C179.592 31.728 180.192 30.72 180.72 29.712C181.296 28.656 181.896 27.624 182.52 26.616C184.296 23.544 185.64 21.888 186.552 21.648C186.84 21.552 187.056 21.504 187.2 21.504C187.92 21.504 188.28 21.768 188.28 22.296C188.28 22.92 187.752 23.304 186.696 23.448C185.736 23.592 185.136 23.712 184.896 23.808C184.512 24.096 184.32 24.72 184.32 25.68C184.32 26.688 184.968 28.392 186.264 30.792C187.56 33.144 188.208 35.232 188.208 37.056C188.208 37.536 188.16 37.992 188.064 38.424C188.016 38.856 187.944 39.312 187.848 39.792C186.552 45.216 183.12 47.928 177.552 47.928C178.656 48.168 179.664 48.288 180.576 48.288C182.256 48.288 183.888 48 185.472 47.424C187.056 46.8 188.52 45.96 189.864 44.904C191.256 43.8 192.528 42.48 193.68 40.944C194.88 39.36 195.912 37.68 196.776 35.904C196.92 35.616 197.064 35.472 197.208 35.472C197.496 35.472 197.52 35.712 197.28 36.192C196.512 37.632 195.696 39 194.832 40.296C194.016 41.544 193.128 42.672 192.168 43.68C191.016 44.832 189.456 45.984 187.488 47.136C185.52 48.288 183.096 48.864 180.216 48.864ZM177.048 47.352C179.496 47.352 181.512 45.504 183.096 41.808C184.392 38.928 185.04 36.024 185.04 33.096C185.04 32.712 184.968 32.208 184.824 31.584C184.728 30.912 184.56 30.12 184.32 29.208C184.128 28.344 183.984 27.6 183.888 26.976C183.792 26.304 183.768 25.728 183.816 25.248C182.904 27.072 181.992 28.728 181.08 30.216C180.168 31.704 179.304 33.048 178.488 34.248C178.728 34.632 178.848 35.016 178.848 35.4C178.848 36.072 178.584 36.816 178.056 37.632C177.72 38.112 177.144 38.568 176.328 39C175.512 39.432 174.936 39.84 174.6 40.224C174.072 40.992 173.808 42 173.808 43.248C173.808 45.984 174.888 47.352 177.048 47.352Z" fill="#3300C6"/>
</svg>
