<svg width="365" height="101" viewBox="0 0 365 101" fill="none" xmlns="http://www.w3.org/2000/svg">
<path d="M0.46875 32.6562C2.25 33.0781 3.84375 33.4062 5.25 33.6406C6.70312 33.8281 7.92188 33.9688 8.90625 34.0625C10.0781 34.2031 11.1094 34.25 12 34.2031C13.125 34.1562 14.5312 33.9922 16.2188 33.7109C17.9062 33.4297 19.6875 33.1484 21.5625 32.8672C23.4375 32.5859 25.2891 32.3516 27.1172 32.1641C28.9453 31.9766 30.5391 31.9531 31.8984 32.0938C33.2578 32.2344 34.6875 32.5625 36.1875 33.0781C37.6875 33.5469 39.0938 34.2031 40.4062 35.0469C41.7188 35.8438 42.8438 36.8281 43.7812 38C44.7656 39.1719 45.375 40.5312 45.6094 42.0781C45.8438 43.5781 45.7031 45.1953 45.1875 46.9297C44.6719 48.6172 43.8516 50.2812 42.7266 51.9219C41.6016 53.5156 40.1953 54.9922 38.5078 56.3516C36.8203 57.7109 34.9453 58.8125 32.8828 59.6562C31.2422 60.2656 29.4609 60.7344 27.5391 61.0625C25.8984 61.3438 23.9766 61.5312 21.7734 61.625C19.6172 61.6719 17.3203 61.4375 14.8828 60.9219C14.5547 62.2812 14.3672 63.5469 14.3203 64.7188C14.3203 65.8438 14.3672 66.8516 14.4609 67.7422C14.6016 68.7734 14.7891 69.7109 15.0234 70.5547C15.3047 71.3984 15.6562 72.3828 16.0781 73.5078C16.4531 74.4453 16.875 75.5938 17.3438 76.9531C17.8594 78.2656 18.4688 79.7422 19.1719 81.3828C18.3281 81.3828 17.5078 81.4062 16.7109 81.4531C15.9141 81.4531 15.1875 81.4766 14.5312 81.5234C13.7812 81.5703 13.0781 81.6172 12.4219 81.6641C11.6719 81.7109 10.8281 81.8047 9.89062 81.9453C9.09375 82.0391 8.08594 82.1797 6.86719 82.3672C5.69531 82.5547 4.35938 82.7891 2.85938 83.0703C3.84375 81.6641 4.61719 80.375 5.17969 79.2031C5.78906 77.9844 6.23438 76.9297 6.51562 76.0391C6.84375 75.0078 7.05469 74.0703 7.14844 73.2266C7.19531 72.5234 7.19531 71.2812 7.14844 69.5C7.14844 67.7188 7.125 65.6562 7.07812 63.3125C7.03125 60.9688 6.96094 58.5078 6.86719 55.9297C6.77344 53.3516 6.65625 50.9375 6.51562 48.6875C6.375 46.3906 6.21094 44.4219 6.02344 42.7812C5.88281 41.1406 5.74219 40.0625 5.60156 39.5469C5.41406 38.9375 5.08594 38.2812 4.61719 37.5781C4.24219 36.9688 3.70312 36.2656 3 35.4688C2.34375 34.625 1.5 33.6875 0.46875 32.6562ZM15.0234 46.5078C14.9766 46.9766 14.9531 47.4688 14.9531 47.9844C14.9531 48.9688 15.0234 50.2344 15.1641 51.7812C15.4922 52.5781 15.8906 53.2344 16.3594 53.75C16.875 54.2656 17.4141 54.6641 17.9766 54.9453C18.5859 55.2266 19.1953 55.4141 19.8047 55.5078C20.4141 55.6016 21.0234 55.6484 21.6328 55.6484C23.0391 55.6016 24.5156 55.2734 26.0625 54.6641C28.125 53.7734 29.5781 52.5078 30.4219 50.8672C31.2656 49.2266 31.7109 47.5391 31.7578 45.8047C31.8047 44.0703 31.5 42.4766 30.8438 41.0234C30.2344 39.5703 29.4844 38.5859 28.5938 38.0703C27.8438 37.7422 26.8828 37.6016 25.7109 37.6484C24.6797 37.6953 23.3906 37.9531 21.8438 38.4219C20.2969 38.8906 18.3984 39.7344 16.1484 40.9531C15.9141 41.7969 15.7266 42.5469 15.5859 43.2031C15.4453 43.8594 15.3281 44.4453 15.2344 44.9609C15.1406 45.5234 15.0703 46.0391 15.0234 46.5078ZM47.6484 84.9688C48.1172 84.2656 48.4922 83.6094 48.7734 83C49.0547 82.3906 49.2891 81.875 49.4766 81.4531C49.6641 80.9375 49.8047 80.4688 49.8984 80.0469C49.9453 79.7656 49.9688 78.9453 49.9688 77.5859C49.9688 76.2266 49.9219 74.5156 49.8281 72.4531C49.7812 70.3906 49.7109 68.0703 49.6172 65.4922C49.5703 62.9141 49.4766 60.2891 49.3359 57.6172C49.2422 54.9453 49.125 52.3438 48.9844 49.8125C48.8906 47.2812 48.7969 45.0078 48.7031 42.9922C48.6094 40.9297 48.5156 39.2422 48.4219 37.9297C48.3281 36.6172 48.2578 35.8672 48.2109 35.6797C48.1172 35.3984 47.9531 35.1172 47.7188 34.8359C47.25 34.2734 46.4531 33.7344 45.3281 33.2188C47.7188 32.6094 49.5469 32.1172 50.8125 31.7422C51.5625 31.5547 52.2188 31.3672 52.7812 31.1797C53.2969 30.9922 53.8125 30.8047 54.3281 30.6172C54.75 30.4297 55.2188 30.2188 55.7344 29.9844C56.25 29.7031 56.7188 29.3984 57.1406 29.0703C56.9062 30.4297 56.7188 31.7422 56.5781 33.0078C56.4375 34.2734 56.3203 35.4453 56.2266 36.5234C56.1328 37.7422 56.0859 38.9141 56.0859 40.0391C55.8516 42.3359 55.7109 44.8438 55.6641 47.5625C55.6641 50.2344 55.6875 52.9531 55.7344 55.7188C55.7812 58.4844 55.875 61.1797 56.0156 63.8047C56.1562 66.4297 56.2969 68.8203 56.4375 70.9766C56.625 73.0859 56.7891 74.8906 56.9297 76.3906C57.1172 77.8438 57.2578 78.7812 57.3516 79.2031C57.5391 79.9062 57.7266 80.5859 57.9141 81.2422C58.1016 81.8047 58.3125 82.3906 58.5469 83C58.7812 83.6562 59.0625 84.1719 59.3906 84.5469H52.5703C51.9609 84.5469 51.375 84.5703 50.8125 84.6172C50.2969 84.6641 49.7578 84.7109 49.1953 84.7578C48.6328 84.8047 48.1172 84.875 47.6484 84.9688ZM67.1953 54.5234C67.4297 54.2422 67.5703 53.7266 67.6172 52.9766C67.7109 52.1797 67.8984 51.2891 68.1797 50.3047C68.5078 49.3203 69.0469 48.2891 69.7969 47.2109C70.5469 46.1328 71.7656 45.125 73.4531 44.1875C75.0938 43.25 76.6875 42.6875 78.2344 42.5C79.7812 42.3125 81.2578 42.3828 82.6641 42.7109C84.0703 43.0391 85.3828 43.5547 86.6016 44.2578C87.8672 44.9609 89.0156 45.7344 90.0469 46.5781C90.75 47.1406 91.3125 47.9609 91.7344 49.0391C92.1562 50.0703 92.4844 51.2422 92.7188 52.5547C92.9531 53.8672 93.1172 55.25 93.2109 56.7031C93.3516 58.1094 93.4453 59.4922 93.4922 60.8516C93.5391 62.1641 93.5625 63.3828 93.5625 64.5078C93.6094 65.5859 93.7031 66.4766 93.8438 67.1797C94.0312 68.2109 94.3594 69.1016 94.8281 69.8516C95.2969 70.5547 95.8125 71.1641 96.375 71.6797C96.9375 72.1484 97.5 72.5234 98.0625 72.8047C98.625 73.0859 99.1172 73.2969 99.5391 73.4375C99.8203 73.5781 100.078 73.6719 100.312 73.7188C100.781 73.9062 101.109 73.9062 101.297 73.7188C101.016 74.375 100.758 74.9375 100.523 75.4062C100.289 75.875 100.102 76.2734 99.9609 76.6016C99.7734 76.9766 99.6094 77.2812 99.4688 77.5156C99.3281 77.7969 99.1641 78.0547 98.9766 78.2891C98.8359 78.5234 98.6484 78.7812 98.4141 79.0625C98.1797 79.3438 97.9453 79.6484 97.7109 79.9766C97.1016 79.7422 96.5156 79.4609 95.9531 79.1328C95.4375 78.8047 94.9688 78.5 94.5469 78.2188C94.0312 77.8906 93.5625 77.5625 93.1406 77.2344C92.7188 76.9062 92.3203 76.5312 91.9453 76.1094C91.6172 75.7344 91.2656 75.3359 90.8906 74.9141C90.5625 74.4922 90.2812 74.0234 90.0469 73.5078C89.7656 74.1172 89.0859 74.9844 88.0078 76.1094C86.9766 77.2344 85.6172 78.2656 83.9297 79.2031C82.2422 80.0938 80.2734 80.7266 78.0234 81.1016C75.8203 81.4766 73.3828 81.2188 70.7109 80.3281C69.5391 79.9531 68.4375 79.4141 67.4062 78.7109C66.375 77.9609 65.4844 77.0703 64.7344 76.0391C64.0312 75.0078 63.5156 73.8359 63.1875 72.5234C62.9062 71.1641 62.9297 69.6641 63.2578 68.0234C63.5859 66.3828 64.1719 65 65.0156 63.875C65.8594 62.75 66.8672 61.8359 68.0391 61.1328C69.2109 60.4297 70.5234 59.8906 71.9766 59.5156C73.4297 59.1406 74.9297 58.8828 76.4766 58.7422C77.6953 58.6953 78.9141 58.7656 80.1328 58.9531C81.1641 59.1406 82.2422 59.4922 83.3672 60.0078C84.4922 60.4766 85.4531 61.2031 86.25 62.1875C86.2031 59.7031 86.1094 57.7344 85.9688 56.2812C85.875 54.7812 85.7812 53.6328 85.6875 52.8359C85.5 51.8984 85.3359 51.2422 85.1953 50.8672C84.9609 50.5391 84.7031 50.1641 84.4219 49.7422C84.1875 49.3203 83.8828 48.9453 83.5078 48.6172C83.1328 48.2422 82.6641 47.9375 82.1016 47.7031C81.5391 47.4688 80.8828 47.375 80.1328 47.4219C79.3359 47.4688 78.7031 47.6797 78.2344 48.0547C77.7656 48.4297 77.3906 48.875 77.1094 49.3906C76.875 49.8594 76.7344 50.375 76.6875 50.9375C76.6406 51.5 76.6641 51.9922 76.7578 52.4141C76.8516 52.6953 76.9922 53 77.1797 53.3281C77.3672 53.6094 77.625 53.9141 77.9531 54.2422C78.2812 54.5703 78.7266 54.8516 79.2891 55.0859C78.2109 55.2266 77.25 55.3438 76.4062 55.4375C75.5625 55.4844 74.8359 55.5547 74.2266 55.6484C73.5234 55.7422 72.9141 55.8125 72.3984 55.8594C71.8828 55.9062 71.2734 56 70.5703 56.1406C69.9609 56.2344 69.2109 56.3516 68.3203 56.4922C67.4297 56.6328 66.3984 56.8203 65.2266 57.0547C65.5078 56.7266 65.7656 56.4219 66 56.1406C66.2344 55.8125 66.4453 55.5312 66.6328 55.2969C66.8203 55.0156 67.0078 54.7578 67.1953 54.5234ZM77.7422 62.8906C76.8984 62.9375 76.0547 63.1484 75.2109 63.5234C74.3672 63.8516 73.6172 64.3438 72.9609 65C72.3047 65.6094 71.7422 66.3359 71.2734 67.1797C70.8516 67.9766 70.6406 68.8672 70.6406 69.8516C70.6406 70.8359 70.875 71.7031 71.3438 72.4531C71.8594 73.1562 72.5156 73.7422 73.3125 74.2109C74.1562 74.6797 75.0469 74.9609 75.9844 75.0547C76.9688 75.1484 77.9297 75.0547 78.8672 74.7734C79.7578 74.4453 80.6016 73.9297 81.3984 73.2266C82.1953 72.4766 82.875 71.6797 83.4375 70.8359C84 69.9453 84.3984 69.0781 84.6328 68.2344C84.8672 67.3438 84.8906 66.6172 84.7031 66.0547C84.3281 64.8359 83.4844 63.9922 82.1719 63.5234C80.8594 63.0078 79.3828 62.7969 77.7422 62.8906ZM97.0078 47.0703C97.9453 47.2109 98.7891 47.3281 99.5391 47.4219C100.242 47.4688 100.875 47.5156 101.438 47.5625C102.047 47.6094 102.633 47.6328 103.195 47.6328C103.711 47.6328 104.367 47.6094 105.164 47.5625C105.82 47.5156 106.664 47.4688 107.695 47.4219C108.773 47.3281 110.039 47.2109 111.492 47.0703C111.398 47.2578 111.211 47.8438 110.93 48.8281C110.648 49.7656 110.367 50.9375 110.086 52.3438C109.805 53.7031 109.547 55.2266 109.312 56.9141C109.125 58.5547 109.031 60.1953 109.031 61.8359C109.078 63.4297 109.289 64.9531 109.664 66.4062C110.039 67.8125 110.648 68.9609 111.492 69.8516C113.273 71.6797 114.844 72.7812 116.203 73.1562C117.609 73.5312 118.828 73.4844 119.859 73.0156C120.891 72.5469 121.734 71.8438 122.391 70.9062C123.047 69.9688 123.516 69.1016 123.797 68.3047C124.5 66.1484 124.922 63.875 125.062 61.4844C125.156 59.4219 124.992 57.125 124.57 54.5938C124.148 52.0625 123.141 49.4844 121.547 46.8594C122.766 46.9531 123.82 47.0234 124.711 47.0703C125.602 47.1172 126.375 47.1641 127.031 47.2109C127.781 47.2578 128.438 47.3047 129 47.3516C129.516 47.3984 130.125 47.3984 130.828 47.3516C131.438 47.3516 132.164 47.3281 133.008 47.2812C133.898 47.1875 134.883 47.0938 135.961 47C136.148 51.5938 136.312 55.6953 136.453 59.3047C136.594 62.8672 136.688 66.0312 136.734 68.7969C136.828 71.5156 136.875 73.8828 136.875 75.8984C136.875 77.8672 136.875 79.5312 136.875 80.8906C136.828 84.125 136.688 86.2578 136.453 87.2891C136.078 88.7422 135.398 90.1953 134.414 91.6484C133.477 93.1016 132.281 94.3906 130.828 95.5156C129.375 96.6875 127.688 97.5781 125.766 98.1875C123.891 98.8438 121.828 99.0781 119.578 98.8906C117.375 98.7031 115.617 98.3984 114.305 97.9766C113.039 97.6016 112.031 97.1562 111.281 96.6406C110.578 96.125 110.062 95.5859 109.734 95.0234C109.453 94.4609 109.242 93.875 109.102 93.2656C108.961 92.7031 108.82 92.1641 108.68 91.6484C108.539 91.1328 108.258 90.6875 107.836 90.3125C107.32 89.8906 106.781 89.4688 106.219 89.0469C105.703 88.6719 105.141 88.2969 104.531 87.9219C103.969 87.5469 103.406 87.2422 102.844 87.0078L117.82 86.1641C117.398 86.7266 117.094 87.2422 116.906 87.7109C116.719 88.1797 116.602 88.5781 116.555 88.9062C116.508 89.3281 116.531 89.6797 116.625 89.9609C116.812 90.5234 117.141 91.1328 117.609 91.7891C118.125 92.4922 118.781 93.0312 119.578 93.4062C120.375 93.8281 121.312 93.9688 122.391 93.8281C123.516 93.6875 124.781 93.1016 126.188 92.0703C127.359 91.1797 128.344 89.75 129.141 87.7812C129.797 86.0938 130.312 83.7266 130.688 80.6797C131.062 77.6328 130.992 73.625 130.477 68.6562C129.633 71.5625 128.484 73.7891 127.031 75.3359C125.578 76.8828 124.125 78.0078 122.672 78.7109C120.984 79.5547 119.227 80 117.398 80.0469C114.961 79.9531 112.875 79.6484 111.141 79.1328C109.406 78.5703 107.977 77.8203 106.852 76.8828C105.727 75.9453 104.836 74.8438 104.18 73.5781C103.57 72.2656 103.125 70.8125 102.844 69.2188C102.562 67.625 102.422 66.0312 102.422 64.4375C102.422 62.7969 102.422 61.2734 102.422 59.8672C102.469 58.4609 102.492 57.1953 102.492 56.0703C102.492 54.8984 102.375 53.9609 102.141 53.2578C101.859 52.5547 101.484 51.8516 101.016 51.1484C100.641 50.5391 100.125 49.8828 99.4688 49.1797C98.7656 48.4297 97.9453 47.7266 97.0078 47.0703ZM140.18 32.5859C141.68 32.6328 142.992 32.6562 144.117 32.6562C145.242 32.6094 146.156 32.5859 146.859 32.5859H148.898C149.414 32.5391 150.047 32.5156 150.797 32.5156C151.453 32.5156 152.25 32.5156 153.188 32.5156C154.125 32.5156 155.203 32.5391 156.422 32.5859C156.797 33.8984 157.219 35.1875 157.688 36.4531C158.203 37.6719 158.648 38.7734 159.023 39.7578C159.492 40.9297 159.961 42.0312 160.43 43.0625C160.898 44.0938 161.461 45.3359 162.117 46.7891C162.68 48.0078 163.359 49.5078 164.156 51.2891C164.953 53.0234 165.891 55.0156 166.969 57.2656C167.484 55.8125 167.953 54.4766 168.375 53.2578C168.844 52.0391 169.242 50.9844 169.57 50.0938C169.945 49.0625 170.25 48.125 170.484 47.2812C170.719 46.4375 170.977 45.4062 171.258 44.1875C171.492 43.1562 171.75 41.9141 172.031 40.4609C172.359 39.0078 172.688 37.3203 173.016 35.3984C174.375 35.3984 175.594 35.3984 176.672 35.3984C177.75 35.3984 178.688 35.375 179.484 35.3281C180.375 35.3281 181.172 35.3047 181.875 35.2578C182.625 35.2578 183.633 35.2109 184.898 35.1172C185.977 35.0234 187.406 34.9531 189.188 34.9062C191.016 34.8125 193.266 34.6953 195.938 34.5547C194.953 35.2578 194.156 35.9609 193.547 36.6641C192.984 37.3203 192.539 37.9062 192.211 38.4219C191.836 39.0312 191.602 39.6172 191.508 40.1797C191.414 40.6484 191.32 41.7266 191.227 43.4141C191.18 45.1016 191.109 47.1172 191.016 49.4609C190.969 51.7578 190.922 54.2188 190.875 56.8438C190.875 59.4688 190.898 61.9531 190.945 64.2969C190.992 66.6406 191.062 68.6797 191.156 70.4141C191.297 72.1016 191.484 73.1797 191.719 73.6484C192.047 74.2109 192.492 74.8672 193.055 75.6172C193.57 76.2734 194.227 77.0234 195.023 77.8672C195.867 78.7109 196.969 79.6484 198.328 80.6797C196.172 80.7734 194.367 80.8438 192.914 80.8906C191.508 80.9375 190.336 80.9844 189.398 81.0312C188.32 81.0781 187.453 81.1016 186.797 81.1016C186.094 81.1016 185.133 81.125 183.914 81.1719C182.836 81.2188 181.406 81.2891 179.625 81.3828C177.844 81.4297 175.547 81.5234 172.734 81.6641C173.391 80.9141 174 80.1641 174.562 79.4141C175.125 78.6641 175.594 77.9844 175.969 77.375C176.438 76.6719 176.836 75.9922 177.164 75.3359C177.492 74.4453 177.75 72.8281 177.938 70.4844C178.125 68.4688 178.266 65.5859 178.359 61.8359C178.453 58.0391 178.453 52.9531 178.359 46.5781C177.469 48.0312 176.672 49.4844 175.969 50.9375C175.312 52.3438 174.727 53.6328 174.211 54.8047C173.648 56.1641 173.133 57.4766 172.664 58.7422C172.195 60.0547 171.703 61.5078 171.188 63.1016C170.719 64.4609 170.156 66.0781 169.5 67.9531C168.891 69.8281 168.188 71.8906 167.391 74.1406L164.719 74.2812C164.344 72.4062 163.969 70.7188 163.594 69.2188C163.219 67.6719 162.844 66.3594 162.469 65.2812C162.047 64.0156 161.625 62.8906 161.203 61.9062C160.734 60.9219 160.219 59.8203 159.656 58.6016C159.141 57.5703 158.508 56.3516 157.758 54.9453C157.055 53.5391 156.234 51.9688 155.297 50.2344C154.828 55.0156 154.547 58.9062 154.453 61.9062C154.359 64.8594 154.359 67.1562 154.453 68.7969C154.547 70.7656 154.688 72.1953 154.875 73.0859C155.156 73.8828 155.602 74.7734 156.211 75.7578C156.727 76.6016 157.43 77.6094 158.32 78.7812C159.258 79.9062 160.453 81.1719 161.906 82.5781C160.875 82.5781 159.797 82.5781 158.672 82.5781C157.547 82.5781 156.516 82.6016 155.578 82.6484C154.453 82.6953 153.352 82.7188 152.273 82.7188C151.148 82.7656 149.836 82.8359 148.336 82.9297C147.023 83.0234 145.453 83.1172 143.625 83.2109C141.797 83.3047 139.688 83.4688 137.297 83.7031C138.328 83.0469 139.172 82.4141 139.828 81.8047C140.484 81.1484 141 80.5625 141.375 80.0469C141.844 79.4375 142.195 78.8281 142.43 78.2188C142.57 77.8438 142.688 77.0234 142.781 75.7578C142.922 74.4922 143.039 72.9453 143.133 71.1172C143.273 69.2891 143.367 67.25 143.414 65C143.508 62.75 143.578 60.4766 143.625 58.1797C143.719 55.8359 143.789 53.5625 143.836 51.3594C143.883 49.1094 143.906 47.0938 143.906 45.3125C143.953 43.4844 143.977 41.9609 143.977 40.7422C143.977 39.5234 143.977 38.75 143.977 38.4219C143.836 37.7188 143.625 37.0156 143.344 36.3125C143.109 35.7031 142.734 35.0703 142.219 34.4141C141.703 33.7578 141.023 33.1484 140.18 32.5859ZM198.68 50.6562C199.898 50.8906 200.953 51.0781 201.844 51.2188C202.781 51.3125 203.578 51.4062 204.234 51.5C204.984 51.5938 205.641 51.6641 206.203 51.7109C206.766 51.7578 207.422 51.8047 208.172 51.8516C209.438 51.8984 211.219 51.8984 213.516 51.8516C212.156 51.7578 211.078 52.1094 210.281 52.9062C209.531 53.6562 208.969 54.5234 208.594 55.5078C208.125 56.6797 207.867 58.0391 207.82 59.5859C207.727 61.6484 207.773 63.5234 207.961 65.2109C208.195 66.8516 208.594 68.2578 209.156 69.4297C209.766 70.5547 210.562 71.3984 211.547 71.9609C212.531 72.4766 213.797 72.6172 215.344 72.3828C216.891 72.1484 218.062 71.6094 218.859 70.7656C219.703 69.875 220.312 68.7969 220.688 67.5312C221.062 66.2188 221.273 64.7422 221.32 63.1016C221.414 61.4609 221.484 59.75 221.531 57.9688C221.531 56.1875 221.508 54.9219 221.461 54.1719C221.461 53.375 221.438 52.8594 221.391 52.625C221.344 52.3906 221.273 52.2969 221.18 52.3438C221.086 52.3438 220.969 52.2266 220.828 51.9922C220.734 51.8047 220.594 51.6172 220.406 51.4297C220.266 51.2422 220.078 51.0312 219.844 50.7969C219.609 50.5156 219.352 50.2344 219.07 49.9531C220.289 50 221.367 50.0469 222.305 50.0938C223.289 50.0938 224.109 50.1172 224.766 50.1641C225.516 50.2109 226.172 50.2578 226.734 50.3047C227.25 50.3516 227.93 50.4219 228.773 50.5156C229.477 50.6094 230.391 50.7031 231.516 50.7969C232.641 50.8906 233.977 51.0312 235.523 51.2188C234.445 51.4531 233.578 51.8047 232.922 52.2734C232.266 52.7422 231.75 53.2109 231.375 53.6797C230.953 54.1953 230.648 54.7578 230.461 55.3672C230.32 56.1641 230.32 57.3828 230.461 59.0234C230.555 60.4766 230.789 62.4688 231.164 65C231.539 67.5312 232.125 70.8594 232.922 74.9844L227.367 78.2891L226.242 68.9375C224.883 71.2344 223.43 73.0156 221.883 74.2812C220.383 75.5 218.977 76.3906 217.664 76.9531C216.117 77.6094 214.617 77.9844 213.164 78.0781C211.242 78.0781 209.578 77.9609 208.172 77.7266C206.812 77.4453 205.641 77.0938 204.656 76.6719C203.672 76.25 202.875 75.7812 202.266 75.2656C201.703 74.7031 201.281 74.1406 201 73.5781C200.344 72.4062 199.992 70.9062 199.945 69.0781C199.898 67.2031 199.969 65.3516 200.156 63.5234C200.344 61.6484 200.555 59.9375 200.789 58.3906C201.023 56.8438 201.094 55.7891 201 55.2266C200.906 54.8047 200.766 54.3359 200.578 53.8203C200.391 53.3984 200.156 52.9297 199.875 52.4141C199.594 51.8516 199.195 51.2656 198.68 50.6562ZM267.586 42.8516C267.164 43.8828 266.789 44.8203 266.461 45.6641C266.18 46.5078 265.922 47.2578 265.688 47.9141C265.453 48.6641 265.242 49.3203 265.055 49.8828C264.867 50.5391 264.656 51.2891 264.422 52.1328C264.188 52.8828 263.883 53.8203 263.508 54.9453C263.18 56.0234 262.781 57.3125 262.312 58.8125C261.938 56.5625 261.258 54.7812 260.273 53.4688C259.289 52.1094 258.281 51.0547 257.25 50.3047C256.031 49.4609 254.719 48.8516 253.312 48.4766C250.781 48.0547 248.953 48.1016 247.828 48.6172C246.703 49.1328 245.953 49.7891 245.578 50.5859C245.391 50.9141 245.18 51.3359 244.945 51.8516C244.758 52.3203 244.594 52.8125 244.453 53.3281C244.359 53.8438 244.336 54.3594 244.383 54.875C244.43 55.3906 244.641 55.8125 245.016 56.1406C245.25 56.375 245.859 56.7031 246.844 57.125C247.828 57.5 249 57.9453 250.359 58.4609C251.766 58.9297 253.242 59.4453 254.789 60.0078C256.383 60.5703 257.883 61.1328 259.289 61.6953C260.695 62.2578 261.914 62.8203 262.945 63.3828C263.977 63.9453 264.656 64.4609 264.984 64.9297C265.266 65.3984 265.57 66.0312 265.898 66.8281C266.273 67.5781 266.531 68.4219 266.672 69.3594C266.859 70.25 266.906 71.1875 266.812 72.1719C266.766 73.1094 266.508 74.0469 266.039 74.9844C265.57 75.9219 264.82 76.7891 263.789 77.5859C262.805 78.3828 261.469 79.0391 259.781 79.5547C257.812 80.1641 255.914 80.3281 254.086 80.0469C252.258 79.7656 250.57 79.3438 249.023 78.7812C247.523 78.2188 246.211 77.6797 245.086 77.1641C243.961 76.6016 243.164 76.3672 242.695 76.4609C242.18 76.5547 241.594 76.8125 240.938 77.2344C240.281 77.6562 239.648 78.1016 239.039 78.5703C238.477 78.9922 237.984 79.3906 237.562 79.7656C237.141 80.0938 236.93 80.2109 236.93 80.1172C236.93 80.0234 237 79.7422 237.141 79.2734C237.328 78.8047 237.516 78.2422 237.703 77.5859C237.938 76.8828 238.148 76.1328 238.336 75.3359C238.57 74.4922 238.734 73.6953 238.828 72.9453C238.922 72.3359 239.039 71.5859 239.18 70.6953C239.273 69.8984 239.391 68.9375 239.531 67.8125C239.719 66.6406 239.93 65.2344 240.164 63.5938C240.398 64.8125 240.727 65.8672 241.148 66.7578C241.617 67.6484 242.062 68.4219 242.484 69.0781C243 69.8281 243.492 70.4609 243.961 70.9766C244.664 71.6328 245.484 72.2422 246.422 72.8047C247.406 73.3672 248.391 73.8594 249.375 74.2812C250.359 74.6562 251.297 74.8906 252.188 74.9844C253.078 75.0781 253.828 74.9844 254.438 74.7031C255.047 74.4219 255.562 73.9062 255.984 73.1562C256.453 72.4062 256.781 71.5859 256.969 70.6953C257.156 69.8047 257.227 68.9609 257.18 68.1641C257.133 67.3203 256.922 66.6406 256.547 66.125C256.266 65.7969 255.609 65.375 254.578 64.8594C253.594 64.3438 252.398 63.7812 250.992 63.1719C249.633 62.5625 248.18 61.9297 246.633 61.2734C245.133 60.6172 243.703 59.9609 242.344 59.3047C241.031 58.6016 239.93 57.9453 239.039 57.3359C238.195 56.6797 237.727 56.0938 237.633 55.5781C237.539 54.8281 237.469 54.0078 237.422 53.1172C237.375 52.1797 237.422 51.2656 237.562 50.375C237.75 49.4375 238.078 48.5469 238.547 47.7031C239.062 46.8594 239.812 46.1562 240.797 45.5938C241.453 45.2188 242.32 44.9375 243.398 44.75C244.477 44.5625 245.672 44.4688 246.984 44.4688C248.297 44.4219 249.656 44.4688 251.062 44.6094C252.469 44.7031 253.805 44.8438 255.07 45.0312C256.383 45.1719 257.555 45.3594 258.586 45.5938C259.664 45.8281 260.484 46.0391 261.047 46.2266C261.703 46.4609 262.406 46.4844 263.156 46.2969C263.812 46.1562 264.516 45.8516 265.266 45.3828C266.016 44.9141 266.789 44.0703 267.586 42.8516ZM270.117 51.5703L283.055 51.7109C282.305 54.5703 281.742 57.0078 281.367 59.0234C281.039 61.0391 280.828 62.7266 280.734 64.0859C280.547 65.6328 280.5 66.9453 280.594 68.0234C280.734 69.0078 280.969 70.0625 281.297 71.1875C281.578 72.125 282 73.2031 282.562 74.4219C283.125 75.6406 283.875 76.8594 284.812 78.0781C284.25 77.8906 283.641 77.75 282.984 77.6562C282.328 77.5625 281.719 77.4922 281.156 77.4453C280.5 77.3984 279.844 77.3984 279.188 77.4453C278.531 77.4922 277.805 77.5625 277.008 77.6562C276.352 77.75 275.555 77.8672 274.617 78.0078C273.68 78.1484 272.695 78.3359 271.664 78.5703C272.367 76.4609 272.906 74.6328 273.281 73.0859C273.703 71.5391 274.008 70.25 274.195 69.2188C274.383 68 274.5 67.0156 274.547 66.2656C274.547 65.3281 274.547 64.2734 274.547 63.1016C274.547 61.8828 274.547 60.7109 274.547 59.5859C274.547 58.4609 274.523 57.4766 274.477 56.6328C274.43 55.7422 274.336 55.1797 274.195 54.9453L273.492 54.2422C273.211 54.0078 272.789 53.6797 272.227 53.2578C271.711 52.7891 271.008 52.2266 270.117 51.5703ZM275.109 40.7422C276.094 40.2266 277.078 40.0859 278.062 40.3203C279.094 40.5547 279.891 41 280.453 41.6562C281.016 42.3125 281.203 43.0859 281.016 43.9766C280.875 44.8672 280.125 45.7344 278.766 46.5781C277.406 47.375 276.211 47.6562 275.18 47.4219C274.148 47.1875 273.422 46.6953 273 45.9453C272.578 45.1953 272.508 44.3281 272.789 43.3438C273.07 42.3125 273.844 41.4453 275.109 40.7422ZM326.648 58.0391C326.086 57.9453 325.383 57.875 324.539 57.8281C323.742 57.7812 322.969 57.7578 322.219 57.7578C321.375 57.7578 320.484 57.7812 319.547 57.8281C318.562 57.875 317.578 57.9219 316.594 57.9688C315.75 58.0156 314.789 58.0859 313.711 58.1797C312.68 58.2266 311.672 58.2969 310.688 58.3906C311.062 58.2031 311.391 57.9453 311.672 57.6172C312 57.2891 312.281 56.9609 312.516 56.6328C312.75 56.2578 312.961 55.8594 313.148 55.4375C313.383 54.7344 313.359 53.8906 313.078 52.9062C312.797 51.875 312.281 50.9375 311.531 50.0938C310.828 49.25 309.914 48.5938 308.789 48.125C307.711 47.6094 306.516 47.4922 305.203 47.7734C303.797 48.1016 302.531 48.5938 301.406 49.25C300.328 49.9062 299.414 50.8203 298.664 51.9922C297.961 53.1172 297.445 54.5234 297.117 56.2109C296.836 57.8516 296.766 59.8203 296.906 62.1172C297.094 64.9766 297.562 67.25 298.312 68.9375C299.062 70.625 299.977 71.8906 301.055 72.7344C302.133 73.5781 303.305 74.0938 304.57 74.2812C305.883 74.4219 307.172 74.4219 308.438 74.2812C309.328 74.0938 310.148 73.6953 310.898 73.0859C311.508 72.5703 312.07 71.8203 312.586 70.8359C313.102 69.8516 313.336 68.4922 313.289 66.7578L321.867 66.4062C320.883 69.1719 319.688 71.375 318.281 73.0156C316.875 74.6094 315.516 75.8516 314.203 76.7422C312.656 77.7734 311.109 78.4766 309.562 78.8516C307.641 79.1797 305.93 79.3203 304.43 79.2734C302.93 79.1797 301.57 78.9453 300.352 78.5703C299.133 78.1953 298.008 77.7266 296.977 77.1641C295.945 76.6016 294.961 75.9922 294.023 75.3359C293.414 74.9141 292.734 74.2109 291.984 73.2266C291.234 72.2422 290.531 71.0703 289.875 69.7109C289.219 68.3047 288.68 66.7578 288.258 65.0703C287.836 63.3828 287.672 61.6484 287.766 59.8672C287.859 58.0391 288.281 56.2109 289.031 54.3828C289.781 52.5547 290.977 50.7969 292.617 49.1094C295.102 46.5781 297.75 44.9375 300.562 44.1875C303.422 43.3906 306.117 43.1797 308.648 43.5547C311.18 43.8828 313.43 44.6094 315.398 45.7344C317.367 46.8594 318.75 48.0781 319.547 49.3906C320.344 50.7031 320.93 51.7109 321.305 52.4141C321.727 53.0703 322.031 53.5859 322.219 53.9609C322.453 54.2891 322.641 54.5469 322.781 54.7344C322.969 54.875 323.227 55.0859 323.555 55.3672C323.789 55.6016 324.07 55.8594 324.398 56.1406C324.68 56.375 325.008 56.6562 325.383 56.9844C325.758 57.3125 326.18 57.6641 326.648 58.0391Z" fill="#3300C6"/>
<g clip-path="url(#clip0_28_5)">
<path d="M363.992 0.492188C364.625 0.960938 365 1.71094 365 2.5V8.125V28.75C365 32.2031 361.641 35 357.5 35C353.359 35 350 32.2031 350 28.75C350 25.2969 353.359 22.5 357.5 22.5C358.375 22.5 359.219 22.625 360 22.8594V11.4844L340 17.4844V33.75C340 37.2031 336.641 40 332.5 40C328.359 40 325 37.2031 325 33.75C325 30.2969 328.359 27.5 332.5 27.5C333.375 27.5 334.219 27.625 335 27.8594V15.625V10C335 8.89844 335.727 7.92187 336.781 7.60156L361.781 0.101563C362.539 -0.125 363.359 0.015625 363.992 0.492188V0.492188Z" fill="#3300C6"/>
</g>
<defs>
<clipPath id="clip0_28_5">
<rect width="40" height="40" fill="white" transform="translate(325)"/>
</clipPath>
</defs>
</svg>
